<?xml version="1.0" encoding="UTF-8" standalone="no"?>
<svg
   class="img-fluid"
   id="outputsvg"
   width="2924.167"
   height="2840.429"
   viewBox="0 0 29241.67 28404.289"
   version="1.1"
   sodipodi:docname="valix.svg"
   xml:space="preserve"
   inkscape:version="1.2.2 (732a01da63, 2022-12-09)"
   inkscape:export-filename="flix.png"
   inkscape:export-xdpi="90"
   inkscape:export-ydpi="90"
   xmlns:inkscape="http://www.inkscape.org/namespaces/inkscape"
   xmlns:sodipodi="http://sodipodi.sourceforge.net/DTD/sodipodi-0.dtd"
   xmlns:xlink="http://www.w3.org/1999/xlink"
   xmlns="http://www.w3.org/2000/svg"
   xmlns:svg="http://www.w3.org/2000/svg"><defs
     id="defs567"><linearGradient
       inkscape:collect="always"
       id="linearGradient504"><stop
         style="stop-color:#00f28e;stop-opacity:1;"
         offset="0"
         id="stop500" /><stop
         style="stop-color:#009ffe;stop-opacity:1;"
         offset="1"
         id="stop502" /></linearGradient><rect
       x="248"
       y="2228"
       width="2852"
       height="1360"
       id="rect557" /><rect
       x="680"
       y="2140"
       width="2272"
       height="1124"
       id="rect5952" /><linearGradient
       inkscape:collect="always"
       xlink:href="#linearGradient504"
       id="linearGradient506"
       x1="5320"
       y1="12960"
       x2="22520"
       y2="12960"
       gradientUnits="userSpaceOnUse"
       gradientTransform="matrix(1.0666155,0,0,1.0666155,-226.45608,-4240.8713)" /></defs><sodipodi:namedview
     id="namedview565"
     pagecolor="#ffffff"
     bordercolor="#999999"
     borderopacity="1"
     inkscape:showpageshadow="0"
     inkscape:pageopacity="0"
     inkscape:pagecheckerboard="0"
     inkscape:deskcolor="#d1d1d1"
     showgrid="false"
     showguides="true"
     inkscape:zoom="0.25"
     inkscape:cx="1018"
     inkscape:cy="1280"
     inkscape:window-width="1928"
     inkscape:window-height="1464"
     inkscape:window-x="428"
     inkscape:window-y="383"
     inkscape:window-maximized="0"
     inkscape:current-layer="outputsvg"><sodipodi:guide
       position="-5451.1149,29584.12"
       orientation="1,0"
       id="guide1398"
       inkscape:locked="false" /></sodipodi:namedview><text
     xml:space="preserve"
     transform="matrix(23.965453,0,0,23.965453,-5531.3818,-33315.611)"
     id="text555"
     style="font-style:normal;font-weight:normal;font-size:389.416px;line-height:1;font-family:sans-serif;white-space:pre;shape-inside:url(#rect557);display:inline;fill:#005fd6;fill-opacity:1;stroke:none"><tspan
       x="248"
       y="2533.6429"
       id="tspan433"><tspan
         style="font-family:Ethnocentric;-inkscape-font-specification:Ethnocentric"
         id="tspan431">flix</tspan></tspan></text><path
     d="m 13780.285,1019.9047 c -1744.272,168.46 -3474.504,880.91 -4829.2097,1982.922 -400.0941,322.884 -1031.8216,961.631 -1347.6855,1358.215 -803.698,1007.255 -1463.5026,2368.979 -1737.2513,3590.318 -171.9702,765.094 -210.5758,1140.622 -210.5758,2018.021 0,877.3993 38.6056,1252.9273 210.5758,2018.0203 277.2583,1245.907 954.611,2628.688 1786.3855,3649.981 322.8832,400.094 961.63,1031.822 1358.2146,1347.685 1007.2534,803.7 2368.9804,1463.503 3590.3204,1737.252 765.091,171.972 1140.618,210.576 2018.017,210.576 877.399,0 1252.927,-38.604 2018.021,-210.576 916.005,-203.556 2116.288,-715.958 2905.947,-1238.886 1365.232,-908.988 2414.603,-2102.251 3134.07,-3565.754 438.701,-894.948 687.883,-1698.645 845.815,-2719.937 84.231,-565.046 84.231,-1891.6753 0,-2456.7213 -157.932,-1021.293 -407.114,-1824.991 -845.815,-2719.938 -470.285,-954.612 -993.216,-1684.607 -1747.78,-2428.643 -740.525,-733.505 -1417.877,-1214.321 -2361.959,-1677.588 -884.419,-435.189 -1705.665,-691.391 -2684.843,-842.303 -442.21,-66.682 -1642.492,-94.75898 -2102.247,-52.644 z m 6973.57,5113.486 189.519,168.46 -3850.03,4299.2583 c -2116.289,2365.47 -3860.557,4302.768 -3874.597,4309.786 -31.587,10.528 -4899.3994,-4615.121 -4899.3994,-4657.236 0,-14.038 154.4225,-189.519 340.4313,-382.5463 l 340.4311,-354.471 2056.624,1954.8493 c 1133.601,1073.936 2070.665,1958.355 2084.703,1965.373 14.037,3.511 1600.376,-1751.289 3527.146,-3906.1843 l 3506.089,-3913.2 196.535,171.969 c 108.8,94.759 280.77,249.183 382.548,343.942 z"
     id="path249"
     style="opacity:1;fill:url(#linearGradient506);fill-opacity:1;stroke:none;stroke-width:3.50959" /></svg>
